<?xml version="1.0" encoding="UTF-8"?>
<svg id="_レイヤー_2" data-name="レイヤー 2" xmlns="http://www.w3.org/2000/svg" viewBox="0 0 667.89 146.52">
  <defs>
    <style>
      .cls-1 {
        fill: #ff7221;
      }
    </style>
  </defs>
  <g id="_レイヤー_1-2" data-name="レイヤー 1">
    <g>
      <path class="cls-1" d="M0,0h90.89v29.08h-58.76v29.86h58.22v28.19h-58.22v30.3h58.76v29.08H0V0Z"/>
      <path class="cls-1" d="M138.32,29.08h-33.96V0h100.05v29.08h-33.85v117.44h-32.24V29.08Z"/>
      <path class="cls-1" d="M257.34,0h32.02l56.17,146.52h-34.39l-10.35-29.42h-54.77l-10.46,29.42h-34.5L257.34,0ZM256.8,88.02h33.31l-16.5-48.06h-.32l-16.5,48.06Z"/>
      <path class="cls-1" d="M358.58,0h48.84c8.12,0,15.65,1.15,22.59,3.44,6.94,2.29,12.54,6.05,16.82,11.27,4.28,5.22,6.42,12.27,6.42,21.15,0,5.85-1.06,11.06-3.18,15.65-2.12,4.59-4.92,8.34-8.41,11.27-3.49,2.92-7.28,4.87-11.37,5.83,3.59.44,7.1,1.5,10.51,3.16,3.41,1.67,6.5,3.96,9.27,6.88,2.77,2.92,4.96,6.55,6.58,10.88s2.43,9.45,2.43,15.37c0,8.21-1.78,15.45-5.34,21.7-3.56,6.25-8.73,11.14-15.53,14.65-6.79,3.52-15.11,5.27-24.96,5.27h-54.66V0ZM390.81,58.72h13.04c3.81,0,6.99-.7,9.54-2.11,2.55-1.41,4.49-3.39,5.82-5.94,1.33-2.55,1.99-5.49,1.99-8.82,0-5.99-1.65-10.05-4.96-12.16-3.31-2.11-7.83-3.16-13.58-3.16h-11.86v32.19ZM390.81,119.99h14.66c4.6,0,8.36-.72,11.27-2.16,2.91-1.44,5.05-3.51,6.42-6.22,1.36-2.7,2.05-5.94,2.05-9.71,0-5.92-1.78-10.27-5.34-13.04-3.56-2.77-8.54-4.16-14.93-4.16h-14.12v35.3Z"/>
      <path class="cls-1" d="M475.66,0h32.24v117.44h51.64v29.08h-83.88V0Z"/>
      <path class="cls-1" d="M577,0h90.89v29.08h-58.76v29.86h58.22v28.19h-58.22v30.3h58.76v29.08h-90.89V0Z"/>
    </g>
  </g>
</svg>